<svg fill="#FFF" xmlns="http://www.w3.org/2000/svg"  viewBox="0 0 50 50" width="500px" height="500px"><path d="M 25.09375 2 C 18.59375 2 13.785156 5.65625 10.65625 9.75 C 9.089844 11.796875 7.933594 13.976563 7.15625 15.90625 C 6.378906 17.835938 5.96875 19.476563 5.96875 20.71875 C 5.96875 22.730469 6.371094 24.308594 6.8125 25.375 C 6.828125 25.414063 6.859375 25.433594 6.875 25.46875 C 6.234375 25.683594 5.707031 26.179688 5.34375 26.8125 C 4.859375 27.65625 4.59375 28.765625 4.59375 30.125 C 4.59375 32.230469 5.351563 34.304688 6.375 35.90625 C 7.398438 37.507813 8.660156 38.8125 10.3125 38.8125 C 10.34375 38.8125 10.375 38.8125 10.40625 38.8125 C 10.957031 40.660156 11.972656 42.019531 13.125 42.96875 C 14.824219 44.367188 16.78125 45.027344 17.625 45.46875 C 19.667969 46.539063 21.128906 48 25 48 C 28.875 48 30.332031 46.535156 32.375 45.46875 C 33.222656 45.027344 35.175781 44.367188 36.875 42.96875 C 38.027344 42.019531 39.042969 40.660156 39.59375 38.8125 C 39.625 38.8125 39.65625 38.8125 39.6875 38.8125 C 41.339844 38.8125 42.601563 37.507813 43.625 35.90625 C 44.648438 34.304688 45.40625 32.230469 45.40625 30.125 C 45.40625 28.765625 45.140625 27.65625 44.65625 26.8125 C 44.304688 26.203125 43.800781 25.726563 43.1875 25.5 C 43.199219 25.46875 43.207031 25.441406 43.21875 25.40625 C 43.644531 24.339844 44.03125 22.765625 44.03125 20.59375 C 44.03125 19.320313 43.632813 17.640625 42.84375 15.71875 C 42.054688 13.796875 40.878906 11.679688 39.3125 9.65625 C 36.183594 5.613281 31.386719 2 25.09375 2 Z M 25.09375 4 C 30.628906 4 34.835938 7.148438 37.71875 10.875 C 39.160156 12.738281 40.246094 14.738281 40.96875 16.5 C 41.691406 18.261719 42.03125 19.816406 42.03125 20.59375 C 42.03125 22.519531 41.679688 23.847656 41.34375 24.6875 C 41.1875 25.078125 41.066406 25.328125 40.96875 25.5 C 40.441406 25.613281 39.871094 25.804688 39.3125 26.09375 C 39.476563 25.5 39.675781 24.949219 39.84375 24.53125 C 40.027344 24.292969 41 22.949219 41 21 C 41 20.535156 40.914063 20.386719 40.78125 20.0625 C 40.648438 19.738281 40.453125 19.371094 40.1875 18.9375 C 39.65625 18.070313 38.816406 17 37.59375 15.96875 C 35.148438 13.90625 31.132813 12 25 12 C 18.867188 12 14.851563 13.90625 12.40625 15.96875 C 11.183594 17 10.34375 18.070313 9.8125 18.9375 C 9.546875 19.371094 9.351563 19.738281 9.21875 20.0625 C 9.085938 20.386719 9 20.535156 9 21 C 9 22.800781 9.820313 24.089844 10.09375 24.46875 C 10.265625 24.882813 10.476563 25.453125 10.65625 26.0625 C 10.136719 25.800781 9.617188 25.648438 9.125 25.53125 C 9.011719 25.332031 8.863281 25.023438 8.6875 24.59375 C 8.332031 23.738281 7.96875 22.449219 7.96875 20.71875 C 7.96875 19.96875 8.289063 18.425781 9 16.65625 C 9.710938 14.886719 10.777344 12.855469 12.21875 10.96875 C 15.101563 7.199219 19.339844 4 25.09375 4 Z M 27 5.6875 L 24.96875 7.75 L 23.03125 5.71875 C 23.03125 5.71875 20.238281 10.902344 20.28125 11.03125 C 20.324219 11.160156 21.96875 12.0625 21.96875 12.0625 L 23.25 7.78125 L 25.0625 9.84375 L 26.6875 7.84375 L 28.03125 12.125 L 29.71875 11.03125 Z M 25 14 C 30.722656 14 34.21875 15.734375 36.3125 17.5 C 37.359375 18.382813 38.042969 19.273438 38.46875 19.96875 C 38.683594 20.316406 38.820313 20.632813 38.90625 20.84375 C 38.949219 20.949219 38.988281 21.042969 39 21.09375 C 38.984375 21.679688 38.820313 22.175781 38.65625 22.5625 C 37.394531 21.53125 32.753906 18 25 18 C 17.246094 18 12.605469 21.53125 11.34375 22.5625 C 11.179688 22.175781 11.015625 21.679688 11 21.09375 C 11.011719 21.042969 11.050781 20.949219 11.09375 20.84375 C 11.179688 20.632813 11.316406 20.316406 11.53125 19.96875 C 11.957031 19.273438 12.640625 18.382813 13.6875 17.5 C 15.78125 15.734375 19.277344 14 25 14 Z M 25 20 C 26.992188 20 28.800781 20.289063 30.40625 20.71875 C 28.148438 21.390625 27.09375 23.5625 27.09375 23.5625 C 26.851563 24.0625 27.0625 24.664063 27.5625 24.90625 C 28.0625 25.148438 28.664063 24.9375 28.90625 24.4375 C 28.90625 24.4375 29.851563 22.53125 31.78125 22.53125 C 33.023438 22.53125 34.34375 23.5625 34.34375 23.5625 C 34.601563 23.785156 34.957031 23.863281 35.285156 23.769531 C 35.613281 23.675781 35.871094 23.421875 35.96875 23.09375 C 36.929688 23.671875 37.414063 24.015625 37.78125 24.3125 C 37.414063 25.269531 37 26.59375 37 27.90625 C 37 28.835938 37.277344 30.210938 37.53125 31.75 C 37.785156 33.289063 38.03125 34.933594 38.03125 35.84375 C 38.03125 38.773438 36.941406 40.328125 35.59375 41.4375 C 34.246094 42.546875 32.628906 43.082031 31.46875 43.6875 C 29.125 44.914063 28.402344 46 25 46 C 21.597656 46 20.875 44.914063 18.53125 43.6875 C 17.371094 43.082031 15.753906 42.546875 14.40625 41.4375 C 13.058594 40.328125 11.96875 38.773438 11.96875 35.84375 C 11.96875 34.933594 12.214844 33.289063 12.46875 31.75 C 12.722656 30.210938 13 28.835938 13 27.90625 C 13 26.59375 12.585938 25.269531 12.21875 24.3125 C 12.617188 24.007813 13.199219 23.613281 14.0625 23.09375 C 14.164063 23.410156 14.417969 23.652344 14.734375 23.746094 C 15.054688 23.839844 15.398438 23.773438 15.65625 23.5625 C 15.65625 23.5625 16.976563 22.53125 18.21875 22.53125 C 20.148438 22.53125 21.09375 24.4375 21.09375 24.4375 C 21.335938 24.9375 21.9375 25.148438 22.4375 24.90625 C 22.9375 24.664063 23.148438 24.0625 22.90625 23.5625 C 22.90625 23.5625 21.851563 21.390625 19.59375 20.71875 C 21.199219 20.289063 23.007813 20 25 20 Z M 19.5 26 C 18.671875 26 18 27.097656 18 28.46875 C 18 29.589844 18.445313 30.53125 19.0625 30.84375 C 18.40625 31.75 18 32.824219 18 34 C 18 34.246094 18.03125 34.480469 18.0625 34.71875 C 14.628906 33.855469 14.25 32.46875 14.25 32.46875 C 14.25 32.46875 13.5625 32.972656 13.5625 35.28125 C 13.5625 38 15.78125 38.125 15.78125 38.125 C 15.78125 38.125 16.03125 40.78125 18.375 40.78125 C 19.386719 40.78125 19.953125 40.347656 20.03125 40.3125 C 20.164063 40.445313 21.234375 42 22.84375 42 C 24.09375 42 24.96875 41.25 24.96875 41.25 C 24.96875 41.25 25.949219 41.96875 27.28125 41.96875 C 28.792969 41.96875 29.96875 40.34375 29.96875 40.34375 C 29.96875 40.34375 30.542969 40.78125 31.6875 40.78125 C 32.832031 40.78125 33.992188 39.960938 34.28125 38.09375 C 35.214844 38.09375 36.4375 36.921875 36.4375 35.375 C 36.4375 33.058594 35.75 32.5 35.75 32.5 C 34.984375 33.585938 33.742188 34.265625 31.9375 34.71875 C 31.96875 34.480469 32 34.246094 32 34 C 32 32.824219 31.59375 31.75 30.9375 30.84375 C 31.554688 30.535156 32 29.589844 32 28.46875 C 32 27.097656 31.328125 26 30.5 26 C 29.671875 26 29 27.097656 29 28.46875 C 29 28.699219 29.027344 28.914063 29.0625 29.125 C 27.902344 28.417969 26.496094 28 25 28 C 23.503906 28 22.097656 28.417969 20.9375 29.125 C 20.972656 28.914063 21 28.699219 21 28.46875 C 21 27.097656 20.328125 26 19.5 26 Z M 7.5625 27.34375 C 8.402344 27.34375 9.816406 27.640625 10.90625 28.71875 C 10.816406 29.410156 10.679688 30.335938 10.5 31.40625 C 10.242188 32.957031 9.96875 34.613281 9.96875 35.84375 C 9.96875 36.144531 9.980469 36.433594 10 36.71875 C 9.527344 36.503906 8.722656 35.878906 8.0625 34.84375 C 7.226563 33.539063 6.59375 31.742188 6.59375 30.125 C 6.59375 29.03125 6.8125 28.246094 7.0625 27.8125 C 7.3125 27.378906 7.507813 27.34375 7.5625 27.34375 Z M 42.4375 27.34375 C 42.492188 27.34375 42.6875 27.378906 42.9375 27.8125 C 43.1875 28.246094 43.40625 29.03125 43.40625 30.125 C 43.40625 31.742188 42.773438 33.539063 41.9375 34.84375 C 41.277344 35.878906 40.472656 36.503906 40 36.71875 C 40.019531 36.433594 40.03125 36.144531 40.03125 35.84375 C 40.03125 34.613281 39.757813 32.957031 39.5 31.40625 C 39.320313 30.335938 39.183594 29.410156 39.09375 28.71875 C 40.183594 27.640625 41.597656 27.34375 42.4375 27.34375 Z M 25 30 C 27.863281 30 30 31.886719 30 34 C 30 36.113281 27.863281 38 25 38 C 22.136719 38 20 36.113281 20 34 C 20 31.886719 22.136719 30 25 30 Z"/></svg>