<svg fill="#FFF" xmlns="http://www.w3.org/2000/svg"  viewBox="0 0 50 50" width="500px" height="500px"><path d="M 18.8125 4 C 18.335938 4.089844 17.992188 4.511719 18 5 L 18 26 L 15.15625 27.0625 L 5.875 30.34375 C 5.863281 30.355469 5.855469 30.363281 5.84375 30.375 L 4.25 30.96875 C 4.230469 30.976563 4.207031 30.988281 4.1875 31 C 1.589844 32.191406 0 33.820313 0 35.6875 C 0 37.171875 0.4375 38.523438 1.3125 39.53125 C 2.1875 40.539063 3.449219 41.1875 4.96875 41.5 C 8.003906 42.125 12.117188 41.53125 17.3125 39.75 C 17.527344 39.679688 17.691406 39.609375 18 39.5 L 18 41.59375 C 17.996094 42.042969 18.289063 42.4375 18.71875 42.5625 L 26.4375 44.875 C 26.46875 44.886719 26.5 44.898438 26.53125 44.90625 C 26.621094 44.953125 26.714844 44.984375 26.8125 45 C 26.90625 45.011719 27 45.011719 27.09375 45 C 27.105469 45 27.113281 45 27.125 45 C 27.199219 44.988281 27.273438 44.964844 27.34375 44.9375 C 27.386719 44.929688 27.429688 44.917969 27.46875 44.90625 C 27.480469 44.894531 27.488281 44.886719 27.5 44.875 L 33.625 42.75 L 44.4375 38.9375 C 44.46875 38.929688 44.5 38.917969 44.53125 38.90625 L 45.75 38.34375 C 45.777344 38.332031 45.785156 38.324219 45.8125 38.3125 C 47.132813 37.800781 48.144531 37.261719 48.875 36.59375 C 49.621094 35.910156 50.074219 34.980469 50 34.03125 C 49.917969 33.070313 49.316406 32.257813 48.5 31.65625 C 47.683594 31.054688 46.625 30.578125 45.3125 30.15625 C 42.277344 29.109375 39.269531 28.800781 36.5625 28.90625 C 34.003906 29.007813 31.324219 29.40625 28.65625 30.21875 L 28.59375 30.25 L 28 30.40625 L 28 13.53125 C 28.578125 13.847656 29 14.351563 29 15 L 29 26.09375 C 28.996094 26.429688 29.160156 26.746094 29.4375 26.9375 C 29.4375 26.9375 29.894531 27.242188 30.65625 27.5 C 31.417969 27.757813 32.539063 28 34 28 C 36.710938 28 38.425781 26.355469 39.1875 24.53125 C 39.949219 22.707031 40 20.695313 40 19.40625 C 40 13.320313 36.320313 9.15625 31.28125 7.65625 L 19.28125 4.03125 C 19.160156 3.996094 19.03125 3.988281 18.90625 4 C 18.875 4 18.84375 4 18.8125 4 Z M 20 6.34375 L 30.71875 9.5625 C 35.078125 10.863281 38 14.09375 38 19.40625 C 38 20.617188 37.90625 22.398438 37.34375 23.75 C 36.78125 25.101563 35.988281 26 34 26 C 32.761719 26 31.878906 25.785156 31.3125 25.59375 C 31.078125 25.515625 31.117188 25.523438 31 25.46875 L 31 15 C 31 13.371094 29.90625 12.039063 28.46875 11.5 C 28.453125 11.496094 28.453125 11.472656 28.4375 11.46875 C 27.261719 11.023438 26 11.933594 26 13.1875 L 26 31.5625 C 25.992188 31.636719 25.992188 31.707031 26 31.78125 L 26 36.40625 C 25.972656 36.539063 25.972656 36.679688 26 36.8125 L 26 39.25 C 25.941406 39.441406 25.941406 39.652344 26 39.84375 L 26 42.65625 L 20 40.875 L 20 38.34375 C 20.058594 38.152344 20.058594 37.941406 20 37.75 L 20 34.5625 C 20.113281 34.304688 20.113281 34.007813 20 33.75 L 20 31.6875 C 20.132813 31.410156 20.132813 31.089844 20 30.8125 L 20 26.8125 C 20.015625 26.707031 20.015625 26.605469 20 26.5 Z M 18 28.125 L 18 30.59375 C 17.527344 30.757813 16.601563 31.09375 15.125 31.625 C 14.21875 31.949219 13.304688 32.300781 12.5625 32.5625 C 11.820313 32.824219 11.1875 33.011719 11.125 33.03125 C 11.105469 33.039063 11.082031 33.050781 11.0625 33.0625 C 9.628906 33.59375 8.707031 34.117188 8.125 34.71875 C 7.832031 35.019531 7.589844 35.359375 7.53125 35.84375 C 7.488281 36.203125 7.785156 36.519531 8.03125 36.8125 L 7.90625 36.90625 C 7.90625 36.90625 8.078125 37.054688 8.1875 37.15625 C 8.273438 37.234375 8.289063 37.273438 8.40625 37.34375 C 8.675781 37.511719 9.058594 37.660156 9.5625 37.75 C 10.5625 37.925781 12.027344 37.808594 14.21875 37.03125 C 14.230469 37.027344 14.238281 37.035156 14.25 37.03125 C 15.511719 36.589844 16.914063 36.070313 18 35.65625 L 18 37.375 C 17.542969 37.535156 17.066406 37.71875 16.6875 37.84375 C 11.679688 39.5625 7.789063 40.03125 5.375 39.53125 C 4.167969 39.28125 3.34375 38.828125 2.8125 38.21875 C 2.28125 37.609375 2 36.800781 2 35.6875 C 2 35.152344 2.828125 33.820313 5.03125 32.8125 L 6.53125 32.25 L 6.5625 32.25 L 15.84375 28.9375 Z M 36.625 30.90625 C 39.121094 30.808594 41.921875 31.078125 44.6875 32.03125 C 44.6875 32.042969 44.6875 32.050781 44.6875 32.0625 C 45.875 32.441406 46.777344 32.851563 47.3125 33.25 C 47.847656 33.648438 47.980469 33.949219 48 34.1875 C 48.027344 34.539063 47.960938 34.730469 47.53125 35.125 C 47.101563 35.519531 46.269531 35.992188 45.03125 36.46875 C 45.011719 36.476563 44.988281 36.488281 44.96875 36.5 L 43.78125 37.0625 L 43.6875 37.09375 L 32.96875 40.84375 L 28 42.59375 L 28 40.1875 C 28.984375 39.832031 37.042969 36.914063 38.84375 36.25 C 40.355469 35.695313 41.296875 35.3125 41.9375 34.96875 C 42.257813 34.796875 42.507813 34.644531 42.75 34.375 C 42.992188 34.105469 43.164063 33.5625 43.0625 33.15625 C 43.039063 33.046875 42.996094 32.941406 42.9375 32.84375 C 42.625 32.375 41.9375 32.058594 41.1875 31.90625 L 41.21875 31.84375 C 41.21875 31.84375 41.082031 31.824219 41.03125 31.8125 C 40.933594 31.789063 40.851563 31.765625 40.65625 31.75 C 40.363281 31.726563 39.976563 31.726563 39.40625 31.78125 C 38.265625 31.890625 36.484375 32.238281 33.78125 33.15625 C 30.769531 34.179688 29.078125 34.769531 28 35.15625 L 28 32.46875 L 29.15625 32.15625 C 29.167969 32.15625 29.175781 32.15625 29.1875 32.15625 C 31.699219 31.382813 34.203125 31.003906 36.625 30.90625 Z M 18 32.75 L 18 33.53125 C 17.210938 33.832031 15.183594 34.589844 13.5625 35.15625 C 11.765625 35.796875 10.753906 35.84375 10.15625 35.78125 C 10.496094 35.542969 10.824219 35.296875 11.6875 34.96875 C 11.722656 34.957031 11.714844 34.949219 11.75 34.9375 C 12.042969 34.851563 12.503906 34.691406 13.21875 34.4375 C 13.96875 34.175781 14.90625 33.855469 15.8125 33.53125 C 16.933594 33.128906 17.335938 32.992188 18 32.75 Z M 39.59375 33.78125 C 39.121094 33.972656 38.910156 34.097656 38.15625 34.375 C 36.488281 34.988281 29.777344 37.417969 28 38.0625 L 28 37.3125 C 28.621094 37.082031 30.1875 36.496094 34.40625 35.0625 C 37.003906 34.179688 38.660156 33.871094 39.59375 33.78125 Z"/></svg>