<svg class="svg-icon" style="width: 1em; height: 1em;vertical-align: middle;fill: currentColor;overflow: hidden;" viewBox="0 0 1024 1024" version="1.1" xmlns="http://www.w3.org/2000/svg"><path d="M745.6 181.2h-506c-32.2 0-58.4 26.2-58.4 58.4v544.8c0 32.2 26.2 58.4 58.4 58.4h544.8c32.2 0 58.4-26.2 58.4-58.4v-506l-97.2-97.2z" fill="#FFFFFF" /><path d="M745.6 181.2h-36.2l97.2 97.2v506c0 32.2-26.2 58.4-58.4 58.4h36.2c32.2 0 58.4-26.2 58.4-58.4v-506l-97.2-97.2zM220.2 784.4V239.6c0-32.2 26.2-58.4 58.4-58.4h-39c-32.2 0-58.4 26.2-58.4 58.4v544.8c0 32.2 26.2 58.4 58.4 58.4h39c-32.4 0-58.4-26.2-58.4-58.4z" fill="#E6E7E8" /><path d="M784.4 852.6H239.6c-37.6 0-68.2-30.6-68.2-68.2V239.6c0-37.6 30.6-68.2 68.2-68.2h506c2.6 0 5 1 6.8 2.8l97.2 97.2c1.8 1.8 2.8 4.2 2.8 6.8v506c0.2 37.8-30.4 68.4-68 68.4zM239.6 191c-26.8 0-48.6 21.8-48.6 48.6v544.8c0 26.8 21.8 48.6 48.6 48.6h544.8c26.8 0 48.6-21.8 48.6-48.6V282.6l-91.6-91.6H239.6z" fill="#402943" /><path d="M229.8 726h58.4v58.4h-58.4z" fill="#59C3F0" /><path d="M229.8 755.2h58.4v29.2h-58.4z" fill="#21A0D6" /><path d="M288.2 794.2h-58.4c-5.4 0-9.8-4.4-9.8-9.8V726c0-5.4 4.4-9.8 9.8-9.8h58.4c5.4 0 9.8 4.4 9.8 9.8v58.4c0 5.4-4.4 9.8-9.8 9.8z m-48.6-19.6h39v-39h-39v39z" fill="#402943" /><path d="M735.8 726h58.4v58.4h-58.4z" fill="#59C3F0" /><path d="M735.8 755.2h58.4v29.2h-58.4z" fill="#21A0D6" /><path d="M794.2 794.2h-58.4c-5.4 0-9.8-4.4-9.8-9.8V726c0-5.4 4.4-9.8 9.8-9.8h58.4c5.4 0 9.8 4.4 9.8 9.8v58.4c-0.2 5.4-4.4 9.8-9.8 9.8z m-48.8-19.6h39v-39h-39v39z" fill="#402943" /><path d="M317.4 492.6h389.2v291.8H317.4z" fill="#FCD64B" /><path d="M317.4 492.6h389.2v19.4H317.4z" fill="#FFECA6" /><path d="M317.4 765h389.2v19.4H317.4z" fill="#F5AB33" /><path d="M706.6 794.2H317.4c-5.4 0-9.8-4.4-9.8-9.8V492.6c0-5.4 4.4-9.8 9.8-9.8h389.2c5.4 0 9.8 4.4 9.8 9.8v291.8c0 5.4-4.4 9.8-9.8 9.8z m-379.4-19.6h369.8V502.2H327.2v272.4z" fill="#402943" /><path d="M597 567.8h-169.8c-39 0-70.8 31.6-70.8 70.8 0 39 31.6 70.8 70.8 70.8 29 0 54-17.4 64.8-42.4h40c11 25 35.8 42.4 64.8 42.4 39 0 70.8-31.6 70.8-70.8 0-39.2-31.6-70.8-70.6-70.8z" fill="#E6E7E8" /><path d="M427 589h169.8c35.4 0 64.8 26.2 70 60.2 0.6-3.4 0.8-7 0.8-10.6 0-39-31.6-70.8-70.8-70.8h-169.8c-39 0-70.8 31.6-70.8 70.8 0 3.6 0.2 7.2 0.8 10.6 5.2-34.2 34.6-60.2 70-60.2z" fill="#FFFFFF" /><path d="M427 719c-44.4 0-80.4-36.2-80.4-80.4s36.2-80.4 80.4-80.4h169.8c44.4 0 80.4 36.2 80.4 80.4s-36.2 80.4-80.4 80.4c-29.8 0-57-16.4-71-42.4h-28c-13.8 26-40.8 42.4-70.8 42.4z m0-141.6c-33.6 0-61 27.4-61 61s27.4 61 61 61c24.2 0 46.2-14.4 56-36.6 1.6-3.6 5-5.8 9-5.8h40c3.8 0 7.4 2.2 9 5.8 9.8 22.2 31.6 36.6 56 36.6 33.6 0 61-27.4 61-61s-27.4-61-61-61h-170z" fill="#402943" /><path d="M597 617.2m-9.8 0a9.8 9.8 0 1 0 19.6 0 9.8 9.8 0 1 0-19.6 0Z" fill="#402943" /><path d="M597 659.8m-9.8 0a9.8 9.8 0 1 0 19.6 0 9.8 9.8 0 1 0-19.6 0Z" fill="#402943" /><path d="M618.2 638.4m-9.8 0a9.8 9.8 0 1 0 19.6 0 9.8 9.8 0 1 0-19.6 0Z" fill="#402943" /><path d="M575.6 638.4m-9.8 0a9.8 9.8 0 1 0 19.6 0 9.8 9.8 0 1 0-19.6 0Z" fill="#402943" /><path d="M417.4 610.2h19.4v56.6h-19.4z" fill="#402943" /><path d="M398.8 628.8h56.6v19.4h-56.6z" fill="#402943" /><path d="M519 634h-14.2c-5.4 0-9.8-4.4-9.8-9.8s4.4-9.8 9.8-9.8h14.2c5.4 0 9.8 4.4 9.8 9.8 0 5.6-4.4 9.8-9.8 9.8z" fill="#402943" /><path d="M317.4 181.2h389.2v194.6H317.4z" fill="#59C3F0" /><path d="M414.8 181.2h19.4v194.6h-19.4z" fill="#21A0D6" /><path d="M317.4 181.2h19.4v194.6h-19.4z" fill="#96DCFA" /><path d="M706.6 385.6H317.4c-5.4 0-9.8-4.4-9.8-9.8V181.2c0-5.4 4.4-9.8 9.8-9.8h389.2c5.4 0 9.8 4.4 9.8 9.8v194.6c0 5.4-4.4 9.8-9.8 9.8zM327.2 366h369.8V191H327.2V366z" fill="#402943" /><path d="M434.2 181.2h272.4v194.6H434.2z" fill="#4AB5AC" /><path d="M434.2 181.2h19.4v194.6h-19.4z" fill="#5BDED3" /><path d="M687.2 181.2h19.4v194.6h-19.4z" fill="#3F9991" /><path d="M706.6 385.6H434.2c-5.4 0-9.8-4.4-9.8-9.8V181.2c0-5.4 4.4-9.8 9.8-9.8h272.4c5.4 0 9.8 4.4 9.8 9.8v194.6c0 5.4-4.4 9.8-9.8 9.8zM443.8 366h253V191H443.8V366z" fill="#402943" /><path d="M580.2 220.2h58.4v116.8h-58.4z" fill="#59C3F0" /><path d="M619 220.2h19.4v116.8h-19.4z" fill="#21A0D6" /><path d="M580.2 220.2h19.4v116.8h-19.4z" fill="#96DCFA" /><path d="M638.4 346.6H580c-5.4 0-9.8-4.4-9.8-9.8V220c0-5.4 4.4-9.8 9.8-9.8h58.4c5.4 0 9.8 4.4 9.8 9.8v116.8c0 5.4-4.4 9.8-9.8 9.8z m-48.6-19.4h39V230h-39v97.2z" fill="#402943" /></svg>