<svg fill="#FFF" xmlns="http://www.w3.org/2000/svg"  viewBox="0 0 50 50" width="500px" height="500px"><path d="M 25.001953 2 C 20.773627 2 16.751857 3.1814924 13.373047 5.2246094 C 12.832601 5.4125246 12.572102 5.6766734 12.261719 5.9609375 C 12.258215 5.9641463 12.253517 5.9655354 12.25 5.96875 A 1.0001 1.0001 0 0 0 12.197266 6.0078125 C 12.195349 6.0085506 12.193107 6.0084167 12.191406 6.0097656 L 12.191406 6.0117188 C 12.182893 6.0184864 12.177574 6.0239083 12.171875 6.0292969 C 12.165648 6.0328647 12.159945 6.0368659 12.154297 6.0410156 C 12.152414 6.0423989 12.150164 6.0433894 12.148438 6.0449219 A 1.0001 1.0001 0 0 0 12.128906 6.0644531 C 12.047856 6.1364023 11.97823 6.2017943 11.919922 6.2578125 C 11.914222 6.2632425 11.905861 6.2720967 11.900391 6.2773438 C 11.895991 6.2817337 11.887053 6.2887287 11.882812 6.2929688 A 1.0001 1.0001 0 0 0 12.589844 8 L 12.591797 8 A 1.0001 1.0001 0 0 0 13.283203 7.7226562 C 13.349092 7.6595092 13.398715 7.611919 13.447266 7.5683594 C 13.983807 7.1514728 14.826017 7.0479348 15.966797 7.28125 C 17.116143 7.5163173 18.467696 8.0881604 19.726562 8.7578125 C 22.244297 10.097117 24.380859 11.783203 24.380859 11.783203 A 1.0001 1.0001 0 0 0 25.623047 11.783203 C 25.623047 11.783203 27.759635 10.096984 30.277344 8.7578125 C 31.536198 8.0882269 32.887801 7.5161855 34.037109 7.28125 C 35.180225 7.0475804 36.024098 7.152975 36.560547 7.5722656 C 36.610057 7.6168748 36.65928 7.6637929 36.720703 7.7226562 A 1.0001 1.0001 0 0 0 37.412109 8 L 37.414062 8 A 1.0001 1.0001 0 0 0 38.121094 6.2929688 C 38.117094 6.2889887 38.109579 6.2814527 38.105469 6.2773438 L 38.103516 6.2753906 C 38.032912 6.2077241 37.951165 6.1304138 37.853516 6.0449219 C 37.849412 6.0412902 37.844729 6.0380527 37.839844 6.0351562 C 37.831245 6.0273241 37.824174 6.020993 37.8125 6.0117188 L 37.8125 6.0097656 C 37.8108 6.0084154 37.808535 6.0086145 37.806641 6.0078125 A 1.0001 1.0001 0 0 0 37.730469 5.953125 C 37.425882 5.6733404 37.169176 5.4111759 36.628906 5.2246094 C 33.25045 3.1812546 29.22938 2 25.001953 2 z M 25.001953 4 C 27.75149 4 30.315927 4.6974668 32.724609 5.6757812 C 31.573105 6.0182966 30.408349 6.4228098 29.337891 6.9921875 C 26.961131 8.2563874 25.468677 9.4515243 25.001953 9.8125 C 24.535231 9.4515245 23.042754 8.2564897 20.666016 6.9921875 C 19.595845 6.4229117 18.432429 6.0183996 17.28125 5.6757812 C 19.689552 4.6981994 22.253051 4 25.001953 4 z M 11.419922 8.0078125 C 9.4646494 8.0078125 8.21875 9.2832031 8.21875 9.2832031 A 1.0001 1.0001 0 0 0 8.1992188 9.3027344 C 4.4037543 13.396824 2.0019531 18.902675 2.0019531 25 C 2.0019531 30.981436 4.3499505 36.384765 8.1015625 40.478516 C 8.1047225 40.481916 8.106215 40.486814 8.109375 40.490234 A 1.0001 1.0001 0 0 0 8.1992188 40.597656 C 12.401316 45.122207 18.350071 48 25.001953 48 C 31.581749 48 37.582177 45.19762 41.775391 40.736328 A 1.0001 1.0001 0 0 0 42.101562 40.496094 C 45.795011 36.402932 48.097656 30.996514 48.097656 25.001953 A 1.0001 1.0001 0 0 0 48.097656 24.984375 C 47.99756 18.999182 45.701719 13.499899 41.900391 9.3984375 A 1.0001 1.0001 0 0 0 41.875 9.3710938 L 41.587891 9.0839844 L 41.626953 9.1269531 C 40.503484 7.8624967 38.882674 8.0625 38.125 8.0625 A 1.0001 1.0001 0 0 0 37.773438 8.125 C 37.533271 8.215102 36.227449 8.6043363 34.541016 9.4707031 C 32.854582 10.33707 30.682876 11.722358 28.316406 13.941406 A 1.0001 1.0001 0 0 0 28.300781 15.384766 C 28.300781 15.384766 33.435987 20.428376 36.589844 25.4375 C 38.847734 29.132509 40.382046 32.116109 40.652344 35.5 C 40.145782 34.512674 39.500605 33.402742 38.642578 32.183594 C 36.655403 29.196923 33.597024 25.914637 30.935547 23.261719 C 29.603068 21.933525 28.371468 20.766664 27.431641 19.890625 C 26.491814 19.014586 25.788712 18.372696 25.708984 18.292969 A 1.0001 1.0001 0 0 0 24.3125 18.275391 C 24.3125 18.275391 22.756585 19.753001 21.054688 21.400391 C 19.360733 23.040091 17.585477 24.771818 16.896484 25.572266 C 15.749794 26.770511 13.671903 29.159324 11.787109 31.822266 C 11.112458 32.775451 10.543117 33.75385 9.9707031 34.726562 C 10.231636 33.32327 10.652958 31.682026 11.484375 29.587891 L 11.486328 29.583984 C 11.487241 29.581684 11.487281 29.580425 11.488281 29.578125 C 13.368709 25.018661 19.363668 17.630389 21.693359 15.390625 A 1.0001 1.0001 0 0 0 21.707031 13.962891 C 21.707031 13.962891 19.311268 11.576707 16.373047 9.7792969 A 1.0001 1.0001 0 0 0 16.265625 9.6953125 C 16.259425 9.6913525 16.252254 9.6894969 16.246094 9.6855469 C 16.242994 9.6836969 16.241381 9.6815275 16.238281 9.6796875 L 16.238281 9.6816406 C 14.783785 8.7515704 13.128837 8.118579 11.486328 8.0097656 A 1.0001 1.0001 0 0 0 11.419922 8.0078125 z M 11.398438 10.013672 C 12.604053 10.103202 13.980477 10.605281 15.183594 11.378906 A 1.0001 1.0001 0 0 0 15.208984 11.394531 L 15.212891 11.396484 C 17.327214 12.666225 18.869724 14.063469 19.611328 14.759766 C 16.777759 17.658803 11.639581 23.957862 9.6347656 28.828125 A 1.0001 1.0001 0 0 0 9.6289062 28.837891 C 8.2092456 32.410188 7.7813148 35.007546 7.6933594 36.876953 C 5.371788 33.498329 4.0019531 29.413739 4.0019531 25 C 4.0019531 19.435401 6.1865638 14.425836 9.6523438 10.679688 C 9.6603138 10.671688 10.316696 10.024622 11.398438 10.013672 z M 38.898438 10.064453 C 39.441571 10.073904 39.851238 10.138172 40.132812 10.455078 A 1.0001 1.0001 0 0 0 40.173828 10.498047 L 40.439453 10.765625 C 43.90251 14.505611 46.003929 19.521555 46.097656 25.009766 C 46.096056 29.293891 44.784858 33.212231 42.609375 36.519531 C 42.562125 32.213745 40.815771 28.51343 38.291016 24.382812 A 1.0001 1.0001 0 0 0 38.283203 24.373047 C 35.354579 19.721649 31.515755 15.817338 30.462891 14.763672 C 32.360992 13.108433 34.108744 11.939695 35.455078 11.248047 C 36.907749 10.50177 37.768948 10.260757 38.310547 10.066406 C 38.521416 10.064931 38.717393 10.061303 38.898438 10.064453 z M 25.013672 20.375 C 25.326936 20.663868 25.515757 20.83842 26.068359 21.353516 C 26.997845 22.219915 28.212666 23.371178 29.523438 24.677734 C 32.14498 27.290847 35.153288 30.542584 36.986328 33.300781 A 1.0001 1.0001 0 0 0 37.001953 33.324219 C 39.488955 36.853832 40.00158 38.924571 40.126953 39.507812 C 36.308821 43.480111 30.930889 46 25.001953 46 C 19.134326 46 13.843665 43.58997 10.035156 39.716797 C 10.299292 38.065377 11.68988 35.422815 13.419922 32.978516 C 15.235147 30.413864 17.303522 28.037473 18.359375 26.935547 A 1.0001 1.0001 0 0 0 18.396484 26.894531 C 18.862606 26.350858 20.751711 24.477251 22.445312 22.837891 C 23.785218 21.5409 24.549601 20.816781 25.013672 20.375 z"/></svg>